<svg width="155" height="32" viewBox="0 0 155 32" fill="none" xmlns="http://www.w3.org/2000/svg">
<path d="M12.7998 12.8H21.3331C23.6895 12.8 25.5998 14.7103 25.5998 17.0667V21.3334C25.5998 23.6898 23.6896 25.6001 21.3331 25.6001H17.0665C14.7101 25.6001 12.7998 23.6898 12.7998 21.3334V12.8Z" fill="#D9D9D9"/>
<path d="M12.7998 12.8H21.3331C23.6895 12.8 25.5998 14.7103 25.5998 17.0667V21.3334C25.5998 23.6898 23.6896 25.6001 21.3331 25.6001H17.0665C14.7101 25.6001 12.7998 23.6898 12.7998 21.3334V12.8Z" fill="url(#paint0_linear_6991_145458)"/>
<path d="M12.7998 12.8H21.3331C23.6895 12.8 25.5998 14.7103 25.5998 17.0667V21.3334C25.5998 23.6898 23.6896 25.6001 21.3331 25.6001H17.0665C14.7101 25.6001 12.7998 23.6898 12.7998 21.3334V12.8Z" fill="url(#paint1_linear_6991_145458)"/>
<path d="M6.3999 10.6666C6.3999 8.31016 8.31015 6.3999 10.6666 6.3999H14.9332C17.2896 6.3999 19.1999 8.31015 19.1999 10.6666V19.1999H10.6666C8.31016 19.1999 6.3999 17.2897 6.3999 14.9332V10.6666Z" fill="#D9D9D9"/>
<path d="M6.3999 10.6666C6.3999 8.31016 8.31015 6.3999 10.6666 6.3999H14.9332C17.2896 6.3999 19.1999 8.31015 19.1999 10.6666V19.1999H10.6666C8.31016 19.1999 6.3999 17.2897 6.3999 14.9332V10.6666Z" fill="url(#paint2_linear_6991_145458)"/>
<path fill-rule="evenodd" clip-rule="evenodd" d="M19.2 12.8V19.2H12.7998V12.8H19.2Z" fill="#D9D9D9"/>
<path fill-rule="evenodd" clip-rule="evenodd" d="M19.2 12.8V19.2H12.7998V12.8H19.2Z" fill="url(#paint3_linear_6991_145458)"/>
<path fill-rule="evenodd" clip-rule="evenodd" d="M19.2 12.8V19.2H12.7998V12.8H19.2Z" fill="url(#paint4_linear_6991_145458)"/>
<path d="M32.592 15.416C32.592 14.328 32.8427 13.352 33.344 12.488C33.856 11.624 34.544 10.952 35.408 10.472C36.2827 9.98133 37.2373 9.736 38.272 9.736C39.456 9.736 40.5067 10.0293 41.424 10.616C42.352 11.192 43.024 12.0133 43.44 13.08H41.248C40.96 12.4933 40.56 12.056 40.048 11.768C39.536 11.48 38.944 11.336 38.272 11.336C37.536 11.336 36.88 11.5013 36.304 11.832C35.728 12.1627 35.2747 12.6373 34.944 13.256C34.624 13.8747 34.464 14.5947 34.464 15.416C34.464 16.2373 34.624 16.9573 34.944 17.576C35.2747 18.1947 35.728 18.6747 36.304 19.016C36.88 19.3467 37.536 19.512 38.272 19.512C38.944 19.512 39.536 19.368 40.048 19.08C40.56 18.792 40.96 18.3547 41.248 17.768H43.44C43.024 18.8347 42.352 19.656 41.424 20.232C40.5067 20.808 39.456 21.096 38.272 21.096C37.2267 21.096 36.272 20.856 35.408 20.376C34.544 19.8853 33.856 19.208 33.344 18.344C32.8427 17.48 32.592 16.504 32.592 15.416ZM45.607 16.552C45.607 15.6667 45.7883 14.8827 46.151 14.2C46.5243 13.5173 47.0257 12.9893 47.655 12.616C48.295 12.232 48.999 12.04 49.767 12.04C50.4603 12.04 51.063 12.1787 51.575 12.456C52.0977 12.7227 52.5137 13.0587 52.823 13.464V12.184H54.663V21H52.823V19.688C52.5137 20.104 52.0923 20.4507 51.559 20.728C51.0257 21.0053 50.4177 21.144 49.735 21.144C48.9777 21.144 48.2843 20.952 47.655 20.568C47.0257 20.1733 46.5243 19.6293 46.151 18.936C45.7883 18.232 45.607 17.4373 45.607 16.552ZM52.823 16.584C52.823 15.976 52.695 15.448 52.439 15C52.1937 14.552 51.8683 14.2107 51.463 13.976C51.0577 13.7413 50.6203 13.624 50.151 13.624C49.6817 13.624 49.2443 13.7413 48.839 13.976C48.4337 14.2 48.103 14.536 47.847 14.984C47.6017 15.4213 47.479 15.944 47.479 16.552C47.479 17.16 47.6017 17.6933 47.847 18.152C48.103 18.6107 48.4337 18.9627 48.839 19.208C49.255 19.4427 49.6923 19.56 50.151 19.56C50.6203 19.56 51.0577 19.4427 51.463 19.208C51.8683 18.9733 52.1937 18.632 52.439 18.184C52.695 17.7253 52.823 17.192 52.823 16.584ZM59.5228 13.464C59.7894 13.016 60.1414 12.6693 60.5788 12.424C61.0268 12.168 61.5548 12.04 62.1628 12.04V13.928H61.6988C60.9841 13.928 60.4401 14.1093 60.0668 14.472C59.7041 14.8347 59.5228 15.464 59.5228 16.36V21H57.6988V12.184H59.5228V13.464ZM66.3034 13.496C66.6127 13.0693 67.034 12.7227 67.5674 12.456C68.1114 12.1787 68.714 12.04 69.3754 12.04C70.154 12.04 70.858 12.2267 71.4874 12.6C72.1167 12.9733 72.6127 13.5067 72.9754 14.2C73.338 14.8827 73.5194 15.6667 73.5194 16.552C73.5194 17.4373 73.338 18.232 72.9754 18.936C72.6127 19.6293 72.1114 20.1733 71.4714 20.568C70.842 20.952 70.1434 21.144 69.3754 21.144C68.6927 21.144 68.0847 21.0107 67.5514 20.744C67.0287 20.4773 66.6127 20.136 66.3034 19.72V21H64.4794V9.16H66.3034V13.496ZM71.6634 16.552C71.6634 15.944 71.5354 15.4213 71.2794 14.984C71.034 14.536 70.7034 14.2 70.2874 13.976C69.882 13.7413 69.4447 13.624 68.9754 13.624C68.5167 13.624 68.0794 13.7413 67.6634 13.976C67.258 14.2107 66.9274 14.552 66.6714 15C66.426 15.448 66.3034 15.976 66.3034 16.584C66.3034 17.192 66.426 17.7253 66.6714 18.184C66.9274 18.632 67.258 18.9733 67.6634 19.208C68.0794 19.4427 68.5167 19.56 68.9754 19.56C69.4447 19.56 69.882 19.4427 70.2874 19.208C70.7034 18.9627 71.034 18.6107 71.2794 18.152C71.5354 17.6933 71.6634 17.16 71.6634 16.552ZM79.7871 21.144C78.9551 21.144 78.2031 20.9573 77.5311 20.584C76.8591 20.2 76.3311 19.6667 75.9471 18.984C75.5631 18.2907 75.3711 17.4907 75.3711 16.584C75.3711 15.688 75.5685 14.8933 75.9631 14.2C76.3578 13.5067 76.8965 12.9733 77.5791 12.6C78.2618 12.2267 79.0245 12.04 79.8671 12.04C80.7098 12.04 81.4725 12.2267 82.1551 12.6C82.8378 12.9733 83.3765 13.5067 83.7711 14.2C84.1658 14.8933 84.3631 15.688 84.3631 16.584C84.3631 17.48 84.1605 18.2747 83.7551 18.968C83.3498 19.6613 82.7951 20.2 82.0911 20.584C81.3978 20.9573 80.6298 21.144 79.7871 21.144ZM79.7871 19.56C80.2565 19.56 80.6938 19.448 81.0991 19.224C81.5151 19 81.8511 18.664 82.1071 18.216C82.3631 17.768 82.4911 17.224 82.4911 16.584C82.4911 15.944 82.3685 15.4053 82.1231 14.968C81.8778 14.52 81.5525 14.184 81.1471 13.96C80.7418 13.736 80.3045 13.624 79.8351 13.624C79.3658 13.624 78.9285 13.736 78.5231 13.96C78.1285 14.184 77.8138 14.52 77.5791 14.968C77.3445 15.4053 77.2271 15.944 77.2271 16.584C77.2271 17.5333 77.4671 18.2693 77.9471 18.792C78.4378 19.304 79.0511 19.56 79.7871 19.56ZM91.2543 12.04C91.9476 12.04 92.5663 12.184 93.1103 12.472C93.6649 12.76 94.0969 13.1867 94.4063 13.752C94.7156 14.3173 94.8703 15 94.8703 15.8V21H93.0623V16.072C93.0623 15.2827 92.8649 14.68 92.4703 14.264C92.0756 13.8373 91.5369 13.624 90.8543 13.624C90.1716 13.624 89.6276 13.8373 89.2223 14.264C88.8276 14.68 88.6303 15.2827 88.6303 16.072V21H86.8063V12.184H88.6303V13.192C88.9289 12.8293 89.3076 12.5467 89.7663 12.344C90.2356 12.1413 90.7316 12.04 91.2543 12.04Z" fill="black"/>
<path d="M101.597 21.112C100.818 21.112 100.114 20.9787 99.4849 20.712C98.8662 20.4453 98.3755 20.0613 98.0129 19.56C97.6502 19.0587 97.4635 18.4667 97.4529 17.784H99.8529C99.8849 18.2427 100.045 18.6053 100.333 18.872C100.632 19.1387 101.037 19.272 101.549 19.272C102.072 19.272 102.482 19.1493 102.781 18.904C103.08 18.648 103.229 18.3173 103.229 17.912C103.229 17.5813 103.128 17.3093 102.925 17.096C102.722 16.8827 102.466 16.7173 102.157 16.6C101.858 16.472 101.442 16.3333 100.909 16.184C100.184 15.9707 99.5915 15.7627 99.1329 15.56C98.6849 15.3467 98.2955 15.032 97.9649 14.616C97.6449 14.1893 97.4849 13.624 97.4849 12.92C97.4849 12.2587 97.6502 11.6827 97.9809 11.192C98.3115 10.7013 98.7755 10.328 99.3729 10.072C99.9702 9.80533 100.653 9.672 101.421 9.672C102.573 9.672 103.506 9.95467 104.221 10.52C104.946 11.0747 105.346 11.8533 105.421 12.856H102.957C102.936 12.472 102.77 12.1573 102.461 11.912C102.162 11.656 101.762 11.528 101.261 11.528C100.824 11.528 100.472 11.64 100.205 11.864C99.9489 12.088 99.8209 12.4133 99.8209 12.84C99.8209 13.1387 99.9169 13.3893 100.109 13.592C100.312 13.784 100.557 13.944 100.845 14.072C101.144 14.1893 101.56 14.328 102.093 14.488C102.818 14.7013 103.41 14.9147 103.869 15.128C104.328 15.3413 104.722 15.6613 105.053 16.088C105.384 16.5147 105.549 17.0747 105.549 17.768C105.549 18.3653 105.394 18.92 105.085 19.432C104.776 19.944 104.322 20.3547 103.725 20.664C103.128 20.9627 102.418 21.112 101.597 21.112ZM110.371 13.416C110.659 13.0107 111.054 12.6747 111.555 12.408C112.067 12.1307 112.648 11.992 113.299 11.992C114.056 11.992 114.739 12.1787 115.347 12.552C115.966 12.9253 116.451 13.4587 116.803 14.152C117.166 14.8347 117.347 15.6293 117.347 16.536C117.347 17.4427 117.166 18.248 116.803 18.952C116.451 19.6453 115.966 20.184 115.347 20.568C114.739 20.952 114.056 21.144 113.299 21.144C112.648 21.144 112.072 21.0107 111.571 20.744C111.08 20.4773 110.68 20.1413 110.371 19.736V25.224H108.131V12.136H110.371V13.416ZM115.059 16.536C115.059 16.0027 114.947 15.544 114.723 15.16C114.51 14.7653 114.222 14.4667 113.859 14.264C113.507 14.0613 113.123 13.96 112.707 13.96C112.302 13.96 111.918 14.0667 111.555 14.28C111.203 14.4827 110.915 14.7813 110.691 15.176C110.478 15.5707 110.371 16.0347 110.371 16.568C110.371 17.1013 110.478 17.5653 110.691 17.96C110.915 18.3547 111.203 18.6587 111.555 18.872C111.918 19.0747 112.302 19.176 112.707 19.176C113.123 19.176 113.507 19.0693 113.859 18.856C114.222 18.6427 114.51 18.3387 114.723 17.944C114.947 17.5493 115.059 17.08 115.059 16.536ZM119.039 16.536C119.039 15.64 119.215 14.8453 119.567 14.152C119.929 13.4587 120.415 12.9253 121.023 12.552C121.641 12.1787 122.329 11.992 123.087 11.992C123.748 11.992 124.324 12.1253 124.815 12.392C125.316 12.6587 125.716 12.9947 126.015 13.4V12.136H128.271V21H126.015V19.704C125.727 20.12 125.327 20.4667 124.815 20.744C124.313 21.0107 123.732 21.144 123.071 21.144C122.324 21.144 121.641 20.952 121.023 20.568C120.415 20.184 119.929 19.6453 119.567 18.952C119.215 18.248 119.039 17.4427 119.039 16.536ZM126.015 16.568C126.015 16.024 125.908 15.56 125.695 15.176C125.481 14.7813 125.193 14.4827 124.831 14.28C124.468 14.0667 124.079 13.96 123.663 13.96C123.247 13.96 122.863 14.0613 122.511 14.264C122.159 14.4667 121.871 14.7653 121.647 15.16C121.433 15.544 121.327 16.0027 121.327 16.536C121.327 17.0693 121.433 17.5387 121.647 17.944C121.871 18.3387 122.159 18.6427 122.511 18.856C122.873 19.0693 123.257 19.176 123.663 19.176C124.079 19.176 124.468 19.0747 124.831 18.872C125.193 18.6587 125.481 18.36 125.695 17.976C125.908 17.5813 126.015 17.112 126.015 16.568ZM130.522 16.568C130.522 15.6507 130.709 14.8507 131.082 14.168C131.456 13.4747 131.973 12.9413 132.634 12.568C133.296 12.184 134.053 11.992 134.906 11.992C136.005 11.992 136.912 12.2693 137.626 12.824C138.352 13.368 138.837 14.136 139.082 15.128H136.666C136.538 14.744 136.32 14.4453 136.01 14.232C135.712 14.008 135.338 13.896 134.89 13.896C134.25 13.896 133.744 14.1307 133.37 14.6C132.997 15.0587 132.81 15.7147 132.81 16.568C132.81 17.4107 132.997 18.0667 133.37 18.536C133.744 18.9947 134.25 19.224 134.89 19.224C135.797 19.224 136.389 18.8187 136.666 18.008H139.082C138.837 18.968 138.352 19.7307 137.626 20.296C136.901 20.8613 135.994 21.144 134.906 21.144C134.053 21.144 133.296 20.9573 132.634 20.584C131.973 20.2 131.456 19.6667 131.082 18.984C130.709 18.2907 130.522 17.4853 130.522 16.568ZM149.603 16.376C149.603 16.696 149.582 16.984 149.539 17.24H143.059C143.113 17.88 143.337 18.3813 143.731 18.744C144.126 19.1067 144.611 19.288 145.187 19.288C146.019 19.288 146.611 18.9307 146.963 18.216H149.379C149.123 19.0693 148.633 19.7733 147.907 20.328C147.182 20.872 146.291 21.144 145.235 21.144C144.382 21.144 143.614 20.9573 142.931 20.584C142.259 20.2 141.731 19.6613 141.347 18.968C140.974 18.2747 140.787 17.4747 140.787 16.568C140.787 15.6507 140.974 14.8453 141.347 14.152C141.721 13.4587 142.243 12.9253 142.915 12.552C143.587 12.1787 144.361 11.992 145.235 11.992C146.078 11.992 146.83 12.1733 147.491 12.536C148.163 12.8987 148.681 13.416 149.043 14.088C149.417 14.7493 149.603 15.512 149.603 16.376ZM147.283 15.736C147.273 15.16 147.065 14.7013 146.659 14.36C146.254 14.008 145.758 13.832 145.171 13.832C144.617 13.832 144.147 14.0027 143.763 14.344C143.39 14.6747 143.161 15.1387 143.075 15.736H147.283Z" fill="#288E40"/>
<defs>
<linearGradient id="paint0_linear_6991_145458" x1="23.9518" y1="13.44" x2="14.1597" y2="24.888" gradientUnits="userSpaceOnUse">
<stop stop-color="#448FFD"/>
<stop offset="1" stop-color="#142FBA"/>
</linearGradient>
<linearGradient id="paint1_linear_6991_145458" x1="25.5998" y1="26.6667" x2="12.8933" y2="13.9501" gradientUnits="userSpaceOnUse">
<stop stop-color="#006E1D"/>
<stop offset="1" stop-color="#0DC83E"/>
</linearGradient>
<linearGradient id="paint2_linear_6991_145458" x1="20.0613" y1="5.7104" x2="9.64337" y2="22.5436" gradientUnits="userSpaceOnUse">
<stop stop-color="#66E371"/>
<stop offset="1" stop-color="#07A014"/>
</linearGradient>
<linearGradient id="paint3_linear_6991_145458" x1="20.0613" y1="5.71055" x2="9.64338" y2="22.5439" gradientUnits="userSpaceOnUse">
<stop stop-color="#66E371"/>
<stop offset="1" stop-color="#07A014"/>
</linearGradient>
<linearGradient id="paint4_linear_6991_145458" x1="15.6539" y1="22.3136" x2="9.25402" y2="15.9038" gradientUnits="userSpaceOnUse">
<stop stop-color="#0EC220"/>
<stop offset="1" stop-color="#9CEC5D"/>
</linearGradient>
</defs>
</svg>
