<svg width="145" height="32" viewBox="0 0 145 32" fill="none" xmlns="http://www.w3.org/2000/svg">
<circle cx="15.9758" cy="16.7385" r="8.86154" fill="#D9D9D9"/>
<circle cx="15.9758" cy="16.7385" r="8.86154" fill="url(#paint0_linear_6991_145455)"/>
<path fill-rule="evenodd" clip-rule="evenodd" d="M17.4534 7.21453L24.7676 23.6716C25.0126 24.2224 24.8691 24.8684 24.4138 25.2638C23.9589 25.6592 23.2988 25.7109 22.7877 25.3914C22.7877 25.3914 18.4101 22.6554 16.9272 21.7283C16.4824 21.4503 15.9183 21.4503 15.4735 21.7283C13.9905 22.6554 9.61293 25.3914 9.61293 25.3914C9.10185 25.7109 8.44174 25.6592 7.98689 25.2638C7.53157 24.8684 7.38803 24.2224 7.63306 23.6716L14.9473 7.21453C15.1672 6.71899 15.6582 6.3999 16.2003 6.3999C16.7425 6.3999 17.2335 6.71899 17.4534 7.21453Z" fill="url(#paint1_linear_6991_145455)"/>
<path d="M32.592 15.416C32.592 14.328 32.8427 13.352 33.344 12.488C33.856 11.624 34.544 10.952 35.408 10.472C36.2827 9.98133 37.2373 9.736 38.272 9.736C39.456 9.736 40.5067 10.0293 41.424 10.616C42.352 11.192 43.024 12.0133 43.44 13.08H41.248C40.96 12.4933 40.56 12.056 40.048 11.768C39.536 11.48 38.944 11.336 38.272 11.336C37.536 11.336 36.88 11.5013 36.304 11.832C35.728 12.1627 35.2747 12.6373 34.944 13.256C34.624 13.8747 34.464 14.5947 34.464 15.416C34.464 16.2373 34.624 16.9573 34.944 17.576C35.2747 18.1947 35.728 18.6747 36.304 19.016C36.88 19.3467 37.536 19.512 38.272 19.512C38.944 19.512 39.536 19.368 40.048 19.08C40.56 18.792 40.96 18.3547 41.248 17.768H43.44C43.024 18.8347 42.352 19.656 41.424 20.232C40.5067 20.808 39.456 21.096 38.272 21.096C37.2267 21.096 36.272 20.856 35.408 20.376C34.544 19.8853 33.856 19.208 33.344 18.344C32.8427 17.48 32.592 16.504 32.592 15.416ZM45.607 16.552C45.607 15.6667 45.7883 14.8827 46.151 14.2C46.5243 13.5173 47.0257 12.9893 47.655 12.616C48.295 12.232 48.999 12.04 49.767 12.04C50.4603 12.04 51.063 12.1787 51.575 12.456C52.0977 12.7227 52.5137 13.0587 52.823 13.464V12.184H54.663V21H52.823V19.688C52.5137 20.104 52.0923 20.4507 51.559 20.728C51.0257 21.0053 50.4177 21.144 49.735 21.144C48.9777 21.144 48.2843 20.952 47.655 20.568C47.0257 20.1733 46.5243 19.6293 46.151 18.936C45.7883 18.232 45.607 17.4373 45.607 16.552ZM52.823 16.584C52.823 15.976 52.695 15.448 52.439 15C52.1937 14.552 51.8683 14.2107 51.463 13.976C51.0577 13.7413 50.6203 13.624 50.151 13.624C49.6817 13.624 49.2443 13.7413 48.839 13.976C48.4337 14.2 48.103 14.536 47.847 14.984C47.6017 15.4213 47.479 15.944 47.479 16.552C47.479 17.16 47.6017 17.6933 47.847 18.152C48.103 18.6107 48.4337 18.9627 48.839 19.208C49.255 19.4427 49.6923 19.56 50.151 19.56C50.6203 19.56 51.0577 19.4427 51.463 19.208C51.8683 18.9733 52.1937 18.632 52.439 18.184C52.695 17.7253 52.823 17.192 52.823 16.584ZM59.5228 13.464C59.7894 13.016 60.1414 12.6693 60.5788 12.424C61.0268 12.168 61.5548 12.04 62.1628 12.04V13.928H61.6988C60.9841 13.928 60.4401 14.1093 60.0668 14.472C59.7041 14.8347 59.5228 15.464 59.5228 16.36V21H57.6988V12.184H59.5228V13.464ZM66.3034 13.496C66.6127 13.0693 67.034 12.7227 67.5674 12.456C68.1114 12.1787 68.714 12.04 69.3754 12.04C70.154 12.04 70.858 12.2267 71.4874 12.6C72.1167 12.9733 72.6127 13.5067 72.9754 14.2C73.338 14.8827 73.5194 15.6667 73.5194 16.552C73.5194 17.4373 73.338 18.232 72.9754 18.936C72.6127 19.6293 72.1114 20.1733 71.4714 20.568C70.842 20.952 70.1434 21.144 69.3754 21.144C68.6927 21.144 68.0847 21.0107 67.5514 20.744C67.0287 20.4773 66.6127 20.136 66.3034 19.72V21H64.4794V9.16H66.3034V13.496ZM71.6634 16.552C71.6634 15.944 71.5354 15.4213 71.2794 14.984C71.034 14.536 70.7034 14.2 70.2874 13.976C69.882 13.7413 69.4447 13.624 68.9754 13.624C68.5167 13.624 68.0794 13.7413 67.6634 13.976C67.258 14.2107 66.9274 14.552 66.6714 15C66.426 15.448 66.3034 15.976 66.3034 16.584C66.3034 17.192 66.426 17.7253 66.6714 18.184C66.9274 18.632 67.258 18.9733 67.6634 19.208C68.0794 19.4427 68.5167 19.56 68.9754 19.56C69.4447 19.56 69.882 19.4427 70.2874 19.208C70.7034 18.9627 71.034 18.6107 71.2794 18.152C71.5354 17.6933 71.6634 17.16 71.6634 16.552ZM79.7871 21.144C78.9551 21.144 78.2031 20.9573 77.5311 20.584C76.8591 20.2 76.3311 19.6667 75.9471 18.984C75.5631 18.2907 75.3711 17.4907 75.3711 16.584C75.3711 15.688 75.5685 14.8933 75.9631 14.2C76.3578 13.5067 76.8965 12.9733 77.5791 12.6C78.2618 12.2267 79.0245 12.04 79.8671 12.04C80.7098 12.04 81.4725 12.2267 82.1551 12.6C82.8378 12.9733 83.3765 13.5067 83.7711 14.2C84.1658 14.8933 84.3631 15.688 84.3631 16.584C84.3631 17.48 84.1605 18.2747 83.7551 18.968C83.3498 19.6613 82.7951 20.2 82.0911 20.584C81.3978 20.9573 80.6298 21.144 79.7871 21.144ZM79.7871 19.56C80.2565 19.56 80.6938 19.448 81.0991 19.224C81.5151 19 81.8511 18.664 82.1071 18.216C82.3631 17.768 82.4911 17.224 82.4911 16.584C82.4911 15.944 82.3685 15.4053 82.1231 14.968C81.8778 14.52 81.5525 14.184 81.1471 13.96C80.7418 13.736 80.3045 13.624 79.8351 13.624C79.3658 13.624 78.9285 13.736 78.5231 13.96C78.1285 14.184 77.8138 14.52 77.5791 14.968C77.3445 15.4053 77.2271 15.944 77.2271 16.584C77.2271 17.5333 77.4671 18.2693 77.9471 18.792C78.4378 19.304 79.0511 19.56 79.7871 19.56ZM91.2543 12.04C91.9476 12.04 92.5663 12.184 93.1103 12.472C93.6649 12.76 94.0969 13.1867 94.4063 13.752C94.7156 14.3173 94.8703 15 94.8703 15.8V21H93.0623V16.072C93.0623 15.2827 92.8649 14.68 92.4703 14.264C92.0756 13.8373 91.5369 13.624 90.8543 13.624C90.1716 13.624 89.6276 13.8373 89.2223 14.264C88.8276 14.68 88.6303 15.2827 88.6303 16.072V21H86.8063V12.184H88.6303V13.192C88.9289 12.8293 89.3076 12.5467 89.7663 12.344C90.2356 12.1413 90.7316 12.04 91.2543 12.04Z" fill="black"/>
<path d="M104.589 18.872H100.141L99.4049 21H97.0529L101.069 9.816H103.677L107.693 21H105.325L104.589 18.872ZM103.981 17.08L102.365 12.408L100.749 17.08H103.981ZM112.442 13.976V18.264C112.442 18.5627 112.511 18.7813 112.65 18.92C112.799 19.048 113.045 19.112 113.386 19.112H114.426V21H113.018C111.13 21 110.186 20.0827 110.186 18.248V13.976H109.13V12.136H110.186V9.944H112.442V12.136H114.426V13.976H112.442ZM118.917 9.16V21H116.677V9.16H118.917ZM121.194 16.536C121.194 15.64 121.37 14.8453 121.722 14.152C122.085 13.4587 122.57 12.9253 123.178 12.552C123.797 12.1787 124.485 11.992 125.242 11.992C125.904 11.992 126.48 12.1253 126.97 12.392C127.472 12.6587 127.872 12.9947 128.17 13.4V12.136H130.426V21H128.17V19.704C127.882 20.12 127.482 20.4667 126.97 20.744C126.469 21.0107 125.888 21.144 125.226 21.144C124.48 21.144 123.797 20.952 123.178 20.568C122.57 20.184 122.085 19.6453 121.722 18.952C121.37 18.248 121.194 17.4427 121.194 16.536ZM128.17 16.568C128.17 16.024 128.064 15.56 127.85 15.176C127.637 14.7813 127.349 14.4827 126.986 14.28C126.624 14.0667 126.234 13.96 125.818 13.96C125.402 13.96 125.018 14.0613 124.666 14.264C124.314 14.4667 124.026 14.7653 123.802 15.16C123.589 15.544 123.482 16.0027 123.482 16.536C123.482 17.0693 123.589 17.5387 123.802 17.944C124.026 18.3387 124.314 18.6427 124.666 18.856C125.029 19.0693 125.413 19.176 125.818 19.176C126.234 19.176 126.624 19.0747 126.986 18.872C127.349 18.6587 127.637 18.36 127.85 17.976C128.064 17.5813 128.17 17.112 128.17 16.568ZM136.646 21.144C135.921 21.144 135.27 21.016 134.694 20.76C134.118 20.4933 133.659 20.136 133.318 19.688C132.987 19.24 132.806 18.744 132.774 18.2H135.03C135.073 18.5413 135.238 18.824 135.526 19.048C135.825 19.272 136.193 19.384 136.63 19.384C137.057 19.384 137.387 19.2987 137.622 19.128C137.867 18.9573 137.99 18.7387 137.99 18.472C137.99 18.184 137.841 17.9707 137.542 17.832C137.254 17.6827 136.79 17.5227 136.15 17.352C135.489 17.192 134.945 17.0267 134.518 16.856C134.102 16.6853 133.739 16.424 133.43 16.072C133.131 15.72 132.982 15.2453 132.982 14.648C132.982 14.1573 133.121 13.7093 133.398 13.304C133.686 12.8987 134.091 12.5787 134.614 12.344C135.147 12.1093 135.771 11.992 136.486 11.992C137.542 11.992 138.385 12.2587 139.014 12.792C139.643 13.3147 139.99 14.024 140.054 14.92H137.91C137.878 14.568 137.729 14.2907 137.462 14.088C137.206 13.8747 136.859 13.768 136.422 13.768C136.017 13.768 135.702 13.8427 135.478 13.992C135.265 14.1413 135.158 14.3493 135.158 14.616C135.158 14.9147 135.307 15.144 135.606 15.304C135.905 15.4533 136.369 15.608 136.998 15.768C137.638 15.928 138.166 16.0933 138.582 16.264C138.998 16.4347 139.355 16.7013 139.654 17.064C139.963 17.416 140.123 17.8853 140.134 18.472C140.134 18.984 139.99 19.4427 139.702 19.848C139.425 20.2533 139.019 20.5733 138.486 20.808C137.963 21.032 137.35 21.144 136.646 21.144Z" fill="#288E40"/>
<defs>
<linearGradient id="paint0_linear_6991_145455" x1="26.03" y1="6.92226" x2="11.6052" y2="30.2298" gradientUnits="userSpaceOnUse">
<stop stop-color="#AEFFB5"/>
<stop offset="1" stop-color="#0CA919"/>
</linearGradient>
<linearGradient id="paint1_linear_6991_145455" x1="9.33015" y1="22.1845" x2="18.6532" y2="7.41529" gradientUnits="userSpaceOnUse">
<stop stop-color="#006E1D"/>
<stop offset="1" stop-color="#0DC83E"/>
</linearGradient>
</defs>
</svg>
