<svg width="150" height="24" viewBox="0 0 150 24" fill="none" xmlns="http://www.w3.org/2000/svg">
<g clip-path="url(#clip0_12175_50270)">
<path d="M21.7999 24H9.13046V4.95121C9.13046 4.15981 9.72225 3.45509 10.6058 3.19429L21.0755 0.105339C22.5055 -0.316543 24 0.581333 24 1.86226V22.1391C24 23.1668 23.0152 23.9997 21.8002 23.9997L21.7999 24Z" fill="#1C75E1"/>
<path d="M21.7999 24H9.13046V4.95121C9.13046 4.15981 9.72225 3.45509 10.6058 3.19429L21.0755 0.105339C22.5055 -0.316543 24 0.581333 24 1.86226V22.1391C24 23.1668 23.0152 23.9997 21.8002 23.9997L21.7999 24Z" fill="url(#paint0_linear_12175_50270)"/>
<path d="M21.7999 24H9.13046V4.95121C9.13046 4.15981 9.72225 3.45509 10.6058 3.19429L21.0755 0.105339C22.5055 -0.316543 24 0.581333 24 1.86226V22.1391C24 23.1668 23.0152 23.9997 21.8002 23.9997L21.7999 24Z" fill="url(#paint1_linear_12175_50270)"/>
<path d="M21.7999 24H9.13046V4.95121C9.13046 4.15981 9.72225 3.45509 10.6058 3.19429L21.0755 0.105339C22.5055 -0.316543 24 0.581333 24 1.86226V22.1391C24 23.1668 23.0152 23.9997 21.8002 23.9997L21.7999 24Z" fill="url(#paint2_linear_12175_50270)"/>
<path d="M15.1304 23.9999H1.31042C0.586797 23.9999 0 23.5107 0 22.9068V12.589C0 12.1241 0.352621 11.71 0.878839 11.5569L13.3887 7.9164C14.2404 7.6685 15.1304 8.19597 15.1304 8.94846V23.9999V23.9999Z" fill="url(#paint3_linear_12175_50270)"/>
<path d="M15.1305 8.94848V23.9999H9.13046V9.14534L13.3782 7.9164C14.2349 7.6685 15.1305 8.19598 15.1305 8.94848V8.94848Z" fill="url(#paint4_linear_12175_50270)"/>
<path d="M31.888 11.624C31.888 9.992 32.264 8.528 33.016 7.232C33.784 5.936 34.816 4.928 36.112 4.208C37.424 3.472 38.856 3.104 40.408 3.104C42.184 3.104 43.76 3.544 45.136 4.424C46.528 5.288 47.536 6.52 48.16 8.12H44.872C44.44 7.24 43.84 6.584 43.072 6.152C42.304 5.72 41.416 5.504 40.408 5.504C39.304 5.504 38.32 5.752 37.456 6.248C36.592 6.744 35.912 7.456 35.416 8.384C34.936 9.312 34.696 10.392 34.696 11.624C34.696 12.856 34.936 13.936 35.416 14.864C35.912 15.792 36.592 16.512 37.456 17.024C38.32 17.52 39.304 17.768 40.408 17.768C41.416 17.768 42.304 17.552 43.072 17.12C43.84 16.688 44.44 16.032 44.872 15.152H48.16C47.536 16.752 46.528 17.984 45.136 18.848C43.76 19.712 42.184 20.144 40.408 20.144C38.84 20.144 37.408 19.784 36.112 19.064C34.816 18.328 33.784 17.312 33.016 16.016C32.264 14.72 31.888 13.256 31.888 11.624ZM50.6905 13.328C50.6905 12 50.9625 10.824 51.5065 9.8C52.0665 8.776 52.8185 7.984 53.7625 7.424C54.7225 6.848 55.7785 6.56 56.9305 6.56C57.9705 6.56 58.8745 6.768 59.6425 7.184C60.4265 7.584 61.0505 8.088 61.5145 8.696V6.776H64.2745V20H61.5145V18.032C61.0505 18.656 60.4185 19.176 59.6185 19.592C58.8185 20.008 57.9065 20.216 56.8825 20.216C55.7465 20.216 54.7065 19.928 53.7625 19.352C52.8185 18.76 52.0665 17.944 51.5065 16.904C50.9625 15.848 50.6905 14.656 50.6905 13.328ZM61.5145 13.376C61.5145 12.464 61.3225 11.672 60.9385 11C60.5705 10.328 60.0825 9.816 59.4745 9.464C58.8665 9.112 58.2105 8.936 57.5065 8.936C56.8025 8.936 56.1465 9.112 55.5385 9.464C54.9305 9.8 54.4345 10.304 54.0505 10.976C53.6825 11.632 53.4985 12.416 53.4985 13.328C53.4985 14.24 53.6825 15.04 54.0505 15.728C54.4345 16.416 54.9305 16.944 55.5385 17.312C56.1625 17.664 56.8185 17.84 57.5065 17.84C58.2105 17.84 58.8665 17.664 59.4745 17.312C60.0825 16.96 60.5705 16.448 60.9385 15.776C61.3225 15.088 61.5145 14.288 61.5145 13.376ZM70.8441 8.696C71.2441 8.024 71.7721 7.504 72.4281 7.136C73.1001 6.752 73.8921 6.56 74.8041 6.56V9.392H74.1081C73.0361 9.392 72.2201 9.664 71.6601 10.208C71.1161 10.752 70.8441 11.696 70.8441 13.04V20H68.1081V6.776H70.8441V8.696ZM80.2951 8.744C80.7591 8.104 81.3911 7.584 82.1911 7.184C83.0071 6.768 83.9111 6.56 84.9031 6.56C86.0711 6.56 87.1271 6.84 88.0711 7.4C89.0151 7.96 89.7591 8.76 90.3031 9.8C90.8471 10.824 91.1191 12 91.1191 13.328C91.1191 14.656 90.8471 15.848 90.3031 16.904C89.7591 17.944 89.0071 18.76 88.0471 19.352C87.1031 19.928 86.0551 20.216 84.9031 20.216C83.8791 20.216 82.9671 20.016 82.1671 19.616C81.3831 19.216 80.7591 18.704 80.2951 18.08V20H77.5591V2.24H80.2951V8.744ZM88.3351 13.328C88.3351 12.416 88.1431 11.632 87.7591 10.976C87.3911 10.304 86.8951 9.8 86.2711 9.464C85.6631 9.112 85.0071 8.936 84.3031 8.936C83.6151 8.936 82.9591 9.112 82.3351 9.464C81.7271 9.816 81.2311 10.328 80.8471 11C80.4791 11.672 80.2951 12.464 80.2951 13.376C80.2951 14.288 80.4791 15.088 80.8471 15.776C81.2311 16.448 81.7271 16.96 82.3351 17.312C82.9591 17.664 83.6151 17.84 84.3031 17.84C85.0071 17.84 85.6631 17.664 86.2711 17.312C86.8951 16.944 87.3911 16.416 87.7591 15.728C88.1431 15.04 88.3351 14.24 88.3351 13.328ZM99.8007 20.216C98.5527 20.216 97.4247 19.936 96.4167 19.376C95.4087 18.8 94.6167 18 94.0407 16.976C93.4647 15.936 93.1767 14.736 93.1767 13.376C93.1767 12.032 93.4727 10.84 94.0647 9.8C94.6567 8.76 95.4647 7.96 96.4887 7.4C97.5127 6.84 98.6567 6.56 99.9207 6.56C101.185 6.56 102.329 6.84 103.353 7.4C104.377 7.96 105.185 8.76 105.777 9.8C106.369 10.84 106.665 12.032 106.665 13.376C106.665 14.72 106.361 15.912 105.753 16.952C105.145 17.992 104.313 18.8 103.257 19.376C102.217 19.936 101.065 20.216 99.8007 20.216ZM99.8007 17.84C100.505 17.84 101.161 17.672 101.769 17.336C102.393 17 102.897 16.496 103.281 15.824C103.665 15.152 103.857 14.336 103.857 13.376C103.857 12.416 103.673 11.608 103.305 10.952C102.937 10.28 102.449 9.776 101.841 9.44C101.233 9.104 100.577 8.936 99.8727 8.936C99.1687 8.936 98.5127 9.104 97.9047 9.44C97.3127 9.776 96.8407 10.28 96.4887 10.952C96.1367 11.608 95.9607 12.416 95.9607 13.376C95.9607 14.8 96.3207 15.904 97.0407 16.688C97.7767 17.456 98.6967 17.84 99.8007 17.84ZM116.281 6.56C117.321 6.56 118.249 6.776 119.065 7.208C119.897 7.64 120.545 8.28 121.009 9.128C121.473 9.976 121.705 11 121.705 12.2V20H118.993V12.608C118.993 11.424 118.697 10.52 118.105 9.896C117.513 9.256 116.705 8.936 115.681 8.936C114.657 8.936 113.841 9.256 113.233 9.896C112.641 10.52 112.345 11.424 112.345 12.608V20H109.609V6.776H112.345V8.288C112.793 7.744 113.361 7.32 114.049 7.016C114.753 6.712 115.497 6.56 116.281 6.56Z" fill="black"/>
<path d="M129.227 3.152V20H125.123V3.152H129.227ZM144.441 22.88L142.281 19.976C141.641 20.104 141.017 20.168 140.409 20.168C138.825 20.168 137.369 19.8 136.041 19.064C134.729 18.328 133.681 17.304 132.897 15.992C132.129 14.664 131.745 13.176 131.745 11.528C131.745 9.88 132.129 8.4 132.897 7.088C133.681 5.776 134.729 4.752 136.041 4.016C137.369 3.28 138.825 2.912 140.409 2.912C141.993 2.912 143.441 3.28 144.753 4.016C146.081 4.752 147.121 5.776 147.873 7.088C148.641 8.4 149.025 9.88 149.025 11.528C149.025 12.968 148.729 14.288 148.137 15.488C147.561 16.672 146.753 17.656 145.713 18.44L149.409 22.88H144.441ZM135.945 11.528C135.945 13.016 136.345 14.208 137.145 15.104C137.961 15.984 139.049 16.424 140.409 16.424C141.753 16.424 142.825 15.976 143.625 15.08C144.441 14.184 144.849 13 144.849 11.528C144.849 10.04 144.441 8.856 143.625 7.976C142.825 7.08 141.753 6.632 140.409 6.632C139.049 6.632 137.961 7.072 137.145 7.952C136.345 8.832 135.945 10.024 135.945 11.528Z" fill="#288E40"/>
</g>
<defs>
<linearGradient id="paint0_linear_12175_50270" x1="22.0856" y1="1.19991" x2="4.42708" y2="13.9906" gradientUnits="userSpaceOnUse">
<stop stop-color="#448FFD"/>
<stop offset="1" stop-color="#142FBA"/>
</linearGradient>
<linearGradient id="paint1_linear_12175_50270" x1="22.0856" y1="1.19991" x2="2.89167" y2="14.8784" gradientUnits="userSpaceOnUse">
<stop stop-color="#82B4FF"/>
<stop offset="1" stop-color="#142FBA"/>
</linearGradient>
<linearGradient id="paint2_linear_12175_50270" x1="10.6845" y1="19.7308" x2="23.5509" y2="5.77324" gradientUnits="userSpaceOnUse">
<stop stop-color="#006E1D"/>
<stop offset="1" stop-color="#0DC83E"/>
</linearGradient>
<linearGradient id="paint3_linear_12175_50270" x1="16.1487" y1="6.98478" x2="2.64492" y2="27.4323" gradientUnits="userSpaceOnUse">
<stop stop-color="#66E371"/>
<stop offset="1" stop-color="#07A014"/>
</linearGradient>
<linearGradient id="paint4_linear_12175_50270" x1="16.1544" y1="7.13495" x2="10.3119" y2="25.7642" gradientUnits="userSpaceOnUse">
<stop stop-color="#13B123"/>
<stop offset="1" stop-color="#64D70A"/>
</linearGradient>
<clipPath id="clip0_12175_50270">
<rect width="150" height="24" fill="white"/>
</clipPath>
</defs>
</svg>
